<svg width="310" height="116" viewBox="0 0 310 116" fill="none" xmlns="http://www.w3.org/2000/svg">
<path d="M77.6953 115.597C77.4316 115.597 77.2559 115.553 77.124 115.509C76.6846 115.333 76.377 115.069 76.1572 114.762C75.9375 114.454 75.8057 114.103 75.7617 113.751C75.7178 113.399 75.6738 113.136 75.6738 112.916V112.345C75.6738 110.323 76.0254 106.412 76.7285 100.655C78.3984 87.4717 80.6396 73.1455 83.4961 57.7207C81.3428 57.6328 79.1455 57.5889 76.9043 57.5889C68.3789 57.5889 59.8975 58.1602 51.416 59.3027C48.1201 65.3672 45.0879 71.915 42.2314 78.9902C39.375 86.0654 37.002 93.4482 35.2002 101.183C34.9805 102.105 34.4092 102.545 33.4863 102.545C32.8271 102.545 32.3438 102.281 31.9922 101.71C31.8164 101.446 31.7285 101.139 31.7285 100.787L31.7725 100.392C32.2559 98.3262 32.5195 97.2715 32.5635 97.1836C32.6074 97.1396 32.6953 96.5244 32.8711 95.3818C32.959 94.7227 33.0469 93.9316 33.0469 93.0967C33.0469 92.5254 33.0029 91.6465 32.915 90.5479C32.8271 89.4053 32.3438 88.043 31.4648 86.5049C30.1025 84.2197 27.8174 82.7256 24.6533 81.9785C22.5 81.4951 20.2588 81.1875 17.9297 81.0117C15.6006 80.8359 13.3594 80.7041 11.1621 80.6602C7.9541 80.6162 5.44922 80.3965 3.55957 80.0449C1.66992 79.7373 0.527344 78.9023 0.131836 77.6279C0.0439453 77.3643 0 77.0566 0 76.793C0 75.958 0.395508 75.0791 1.23047 74.1123C2.06543 73.1016 3.38379 72.0029 5.18555 70.7285C9.27246 67.8721 13.8867 65.4551 18.9844 63.4775C24.0381 61.5439 29.2236 59.9619 34.4531 58.7754C39.6826 57.5889 44.6045 56.666 49.1309 56.0508C53.5254 48.0088 58.4473 40.1426 63.9404 32.4521C70.0488 23.8828 75.9814 16.6318 81.6943 10.6992C87.4072 4.7666 91.8018 1.29492 94.834 0.28418C95.3174 0.152344 95.7568 0.0644531 96.1084 0.0644531C96.416 0.0644531 96.7236 0.152344 97.0752 0.240234C97.4707 0.37207 97.7783 0.547852 98.042 0.855469C98.6133 1.4707 98.877 2.21777 98.877 3.14062C98.877 3.44824 98.833 3.84375 98.7451 4.2832C98.6572 4.67871 98.5693 5.03027 98.4814 5.29395C94.7021 18.7852 91.0986 35.1328 87.627 54.4248C98.9648 55.2158 104.634 57.0615 104.634 60.0498C104.634 60.3135 104.546 60.6211 104.37 60.9727C104.194 61.2803 103.887 61.5439 103.403 61.7197C103.228 61.7637 103.052 61.8076 102.876 61.8076C102.568 61.8076 102.305 61.7197 101.997 61.5439C101.689 61.4121 101.426 61.1045 101.206 60.665C101.162 60.6211 100.986 60.4893 100.635 60.2695C100.283 60.0938 99.668 59.874 98.833 59.6104C97.9541 59.3467 96.7236 59.083 95.1855 58.7754C93.6475 58.5117 91.626 58.292 89.209 58.0723L87.0117 57.8965C84.9463 69.5859 83.1885 80.1768 81.8262 89.7129C80.4199 99.249 79.541 106.104 79.2334 110.279C79.9805 110.587 80.376 111.114 80.376 111.905C80.376 112.433 80.1123 113.224 79.585 114.19C79.2773 114.762 78.9697 115.113 78.6182 115.289C78.2666 115.509 77.959 115.597 77.6953 115.597ZM35.5518 86.9443C38.4961 78.0674 42.3633 69.0586 47.1094 59.918C29.6191 62.6865 16.3037 67.2568 7.20703 73.585C5.22949 75.0791 4.08691 76.0459 3.7793 76.5293C4.57031 76.7051 5.66895 76.8369 7.0752 76.9248C8.52539 77.0127 9.93164 77.1006 11.2939 77.1445C13.4473 77.1885 15.7764 77.3203 18.2373 77.4961C20.6982 77.6719 23.1152 78.0234 25.4443 78.5508C30.5859 79.7373 33.9697 82.5498 35.5518 86.9443ZM53.4814 55.4795C61.3037 54.5566 69.3457 54.0732 77.5635 54.0732C79.7607 54.0732 81.958 54.1172 84.1113 54.2051C88.1104 32.4961 91.7578 15.8408 95.1416 4.2832L95.2295 3.84375C94.5703 4.15137 93.4717 4.85449 91.9775 5.99707C90.4834 7.13965 88.5059 8.89746 86.0449 11.3145C80.1562 17.1592 74.0918 24.3662 67.8955 32.9355C63.7207 38.4727 58.9307 45.9873 53.4814 55.4795Z" fill="white"/>
<path d="M103.296 85.4062C101.802 85.4062 101.099 84.3955 101.099 82.3301V81.8467C101.406 78.3311 102.549 73.3213 104.483 66.8613C106.372 60.4014 108.526 53.9414 110.899 47.5254L111.646 45.5918C111.646 45.1523 111.778 44.7568 112.085 44.4492C113.711 40.0107 115.864 34.8252 118.545 28.8486C121.226 22.916 123.775 18.4775 126.236 15.5771C128.784 12.8086 130.982 11.4463 132.871 11.4463C133.443 11.4463 133.97 11.5781 134.497 11.8418C135.904 12.6768 136.607 14.0391 136.607 15.9727C136.607 20.1475 133.135 26.6953 126.192 35.6162C123.775 38.5605 121.577 40.9775 119.512 42.8232C117.446 44.7129 115.908 45.9434 114.986 46.6025C111.118 56.8857 108.218 65.9824 106.196 73.8486C107.251 71.5635 108.613 69.0586 110.283 66.29C111.909 63.5654 113.755 61.0605 115.777 58.8193C117.798 56.5781 119.863 55.084 122.017 54.293C122.808 54.0293 123.555 53.8975 124.302 53.8975C125.576 53.8975 126.807 54.293 127.949 55.04C129.531 56.1387 130.322 58.0283 130.322 60.709C130.322 62.6865 129.795 65.0156 128.696 67.6963C130.454 67.3008 132.3 66.5977 134.234 65.543C136.167 64.5322 138.628 62.7305 141.572 60.2256C141.924 59.9619 142.32 59.8301 142.715 59.8301C143.242 59.8301 143.638 60.0059 143.989 60.4014C144.297 60.7969 144.473 61.1924 144.473 61.5879C144.473 62.1152 144.253 62.5547 143.858 62.9062C139.946 66.2461 136.738 68.4434 134.278 69.498C131.817 70.5527 129.312 71.2998 126.763 71.7393L126.236 71.8271C125.752 72.4424 125.269 73.0576 124.697 73.6729C121.797 76.7051 119.512 78.5508 117.842 79.2539C116.128 79.957 114.766 80.3086 113.711 80.3086C111.602 80.3086 110.371 79.4297 110.02 77.584L109.976 77.1885C109.976 76.2217 110.415 75.2109 111.294 74.1123C113.008 71.915 117.271 70.1133 124.126 68.707C125.884 65.7627 126.763 63.126 126.763 60.8848C126.763 60.5332 126.763 60.2256 126.719 59.874C126.543 58.7754 126.279 58.1162 125.972 57.9404C125.488 57.5889 124.917 57.4131 124.346 57.4131C123.95 57.4131 123.555 57.501 123.159 57.6328C121.138 58.4238 119.072 60.1816 116.963 62.8623C114.81 65.5869 112.92 68.4873 111.294 71.5635C109.624 74.6836 108.438 77.2324 107.735 79.21C107.163 80.8799 106.548 82.2422 105.977 83.2529C105.801 83.6045 105.493 84.0439 105.054 84.5273C104.571 85.0547 103.999 85.3623 103.296 85.4062ZM113.887 76.793C115.425 76.793 117.446 75.6504 119.995 73.4092L117.842 74.1123C116.568 74.5518 115.601 75.0352 114.942 75.5186C114.282 76.002 113.843 76.4414 113.667 76.793H113.887ZM117.71 39.6592C119.512 37.9893 121.402 35.9238 123.423 33.4189C128.828 26.4756 132.036 21.0264 133.003 17.1152C133.091 16.6318 133.091 16.2803 133.091 15.9727C133.091 15.4453 133.047 15.0938 132.871 14.9619C132.827 14.9619 132.652 15.0059 132.344 15.0938C132.036 15.2256 131.553 15.4893 130.982 15.8848C130.41 16.3242 129.663 17.0273 128.784 17.9502C125.972 21.1582 122.28 28.4092 117.71 39.6592Z" fill="white"/>
<path d="M140.586 76.8809C140.191 76.8809 139.883 76.8369 139.576 76.793C137.73 76.3975 136.499 75.2109 135.84 73.2334C135.621 72.3984 135.489 71.4756 135.489 70.5088C135.489 69.2783 135.664 67.916 136.06 66.4219C136.719 63.8291 137.862 61.3682 139.488 59.0391C141.861 55.7871 144.497 54.1611 147.354 54.1611C147.398 53.502 147.662 52.9307 148.057 52.4912C148.453 52.0518 148.98 51.832 149.507 51.832C150.87 51.832 151.836 53.1943 152.496 55.9629C152.627 56.6221 152.759 57.501 152.847 58.5996C154.517 59.9619 156.495 60.6211 158.78 60.6211C160.186 60.6211 161.504 60.2695 162.735 59.6104C162.998 59.4346 163.306 59.3467 163.614 59.3467C164.273 59.3467 164.756 59.6104 165.108 60.1816C165.284 60.4893 165.371 60.7969 165.371 61.1045C165.371 61.7637 165.108 62.2471 164.537 62.5986C162.735 63.6094 160.845 64.1367 158.78 64.1367C156.538 64.1367 154.473 63.6533 152.583 62.6426C152.364 64.0928 151.836 65.6748 151.089 67.3887C150.298 69.1025 149.156 70.8604 147.662 72.7061C146.211 74.376 144.849 75.4746 143.663 76.0459C142.432 76.6172 141.421 76.8809 140.586 76.8809ZM140.542 73.4092C141.817 73.4092 143.311 72.3984 144.981 70.4209C146.607 68.4434 147.705 66.5537 148.365 64.752C148.98 62.9941 149.288 61.4561 149.331 60.0938C148.672 59.3467 148.189 58.5117 147.837 57.5889L147.793 57.5449C147.618 57.5889 147.398 57.6328 147.178 57.6768C145.552 57.7646 143.97 58.9072 142.344 61.1045C141.07 62.9062 140.191 64.6641 139.707 66.3779C139.224 68.0479 139.004 69.4102 139.004 70.4209C139.004 72.3984 139.532 73.4092 140.542 73.4092Z" fill="white"/>
<path d="M177.569 78.7705C177.086 78.7705 176.646 78.7266 176.251 78.5947C174.229 77.9355 173.218 76.002 173.218 72.8818C173.218 70.2451 174.053 66.7734 175.767 62.5107C169.307 70.377 164.429 74.2881 161.221 74.2881C159.639 74.2881 158.409 73.585 157.486 72.2227L157.398 72.0029C157.09 71.2559 156.959 70.4209 156.959 69.4541C156.959 68.5312 157.09 67.4766 157.398 66.29C157.969 63.917 158.848 61.5439 159.991 59.1709C161.133 56.7979 162.232 54.8643 163.331 53.3701C163.638 52.9746 163.946 52.7988 164.254 52.7549C164.517 52.7109 164.737 52.667 164.825 52.667C165.132 52.667 165.484 52.7988 165.792 53.0186C166.187 53.3262 166.407 53.6338 166.451 53.8975C166.495 54.1611 166.495 54.3369 166.495 54.4248C166.495 54.7764 166.407 55.1279 166.143 55.4795C164.517 57.7207 163.067 60.5332 161.793 63.873C161.133 65.8066 160.738 67.1689 160.606 67.96C160.518 68.751 160.474 69.3223 160.474 69.6738C160.474 70.0254 160.474 70.2891 160.562 70.4648C160.65 70.5967 160.738 70.6406 160.826 70.6846C160.914 70.7285 161.002 70.7725 161.089 70.7725H161.177C161.397 70.7725 161.793 70.6846 162.32 70.4648C162.891 70.2451 163.726 69.6738 164.825 68.8389C165.879 68.0039 167.242 66.7295 168.912 65.0156C172.383 61.1045 175.328 57.5889 177.657 54.4248C178.404 53.458 178.975 52.7109 179.415 52.1836C179.722 51.7441 180.03 51.3926 180.425 51.1289C180.777 50.8652 181.129 50.7334 181.436 50.7334C181.7 50.7334 181.963 50.7773 182.227 50.9092C182.93 51.2607 183.282 51.7881 183.282 52.4912C183.282 53.1064 182.711 54.7764 181.524 57.501C180.601 59.6543 179.59 62.1592 178.58 64.9277C177.569 67.7402 176.954 70.1133 176.778 72.0029L176.734 72.8818C176.734 74.332 176.954 75.123 177.349 75.2549C177.437 75.2988 177.525 75.2988 177.613 75.2988C179.195 75.2988 182.051 73.3652 186.27 69.542C188.292 67.6084 190.093 65.7188 191.675 63.917C193.213 62.1152 194.312 60.7529 194.883 59.8301C195.147 59.4346 195.411 59.1709 195.718 59.083C196.026 59.0391 196.246 58.9951 196.378 58.9951C196.685 58.9951 196.993 59.083 197.3 59.2588C197.696 59.5664 197.96 59.8301 198.004 60.1377C198.091 60.4014 198.135 60.6211 198.135 60.7529C198.135 61.0605 198.047 61.3682 197.872 61.6758C197.125 62.8184 195.938 64.3564 194.268 66.29C192.554 68.2236 190.709 70.1572 188.643 72.0908C183.941 76.5293 180.25 78.7705 177.569 78.7705Z" fill="white"/>
<path d="M191.217 92.833C188.272 92.833 186.778 90.5918 186.778 86.0654C186.778 83.6484 187.305 79.957 188.36 75.0791C189.459 70.1572 191.48 62.9941 194.425 53.5898C197.105 45.1084 199.434 38.2529 201.412 33.1113C194.952 33.375 189.371 33.6387 184.625 33.8584C179.835 34.0781 177.242 34.21 176.846 34.2539H176.759C176.275 34.2539 175.88 34.0781 175.572 33.7705C175.221 33.4629 175.045 33.0674 175.001 32.584C175.001 32.1006 175.177 31.6611 175.484 31.3096C175.792 30.958 176.187 30.7822 176.671 30.7383C176.978 30.6943 179.703 30.5625 184.845 30.2988C189.986 30.0791 195.963 29.8154 202.774 29.5518C205.015 24.0586 206.729 20.2793 207.916 18.2139C209.102 16.1484 209.849 15.0498 210.113 14.918C210.64 14.4346 211.212 14.1709 211.783 14.1709C211.959 14.1709 212.179 14.2148 212.354 14.3027C212.574 14.3906 212.706 14.4785 212.75 14.5225C213.233 14.874 213.497 15.3574 213.497 15.9727C213.497 16.1924 213.453 16.4561 213.365 16.7197C213.321 16.9834 213.233 17.2031 213.145 17.4229C212.97 17.8184 212.706 18.3896 212.354 19.0928C212.047 19.6641 211.827 20.1914 211.607 20.6309C211.387 21.0703 211.212 21.334 211.168 21.3779C210.86 21.9492 210.377 22.2568 209.762 22.3008C208.927 24.0146 207.872 26.3877 206.597 29.4199C214.376 29.1562 220.352 29.0244 224.615 29.0244C226.461 29.0244 227.999 29.0244 229.229 29.1123C230.416 29.1562 231.339 29.2881 231.91 29.4639C232.481 29.6396 232.921 29.9033 233.184 30.2549C233.448 30.6064 233.536 31.002 233.536 31.3975C233.536 31.5732 233.536 31.793 233.448 32.0127C233.14 32.8037 232.613 33.1992 231.822 33.1992C231.383 33.1992 230.987 33.0674 230.679 32.8037C230.02 32.6279 228.087 32.54 224.791 32.54C223.516 32.54 221.539 32.54 218.858 32.584C216.178 32.6279 211.607 32.7598 205.191 32.9795C203.17 38.165 200.709 45.3721 197.764 54.6445C192.799 70.4648 190.294 80.9678 190.294 86.1094C190.294 86.2852 190.294 86.5488 190.294 86.9883C190.338 87.3838 190.382 87.7793 190.47 88.1748C190.557 88.5703 190.645 88.834 190.777 88.9658C190.865 89.1416 190.909 89.2295 190.953 89.2295C190.997 89.2734 191.129 89.3174 191.304 89.3174C191.436 89.3174 191.612 89.2734 191.92 89.2295C192.227 89.1855 192.799 88.9219 193.678 88.4385C195.831 87.1201 198.116 84.9668 200.577 81.9785C203.038 79.0342 205.367 75.8701 207.608 72.5303C209.805 69.2344 211.607 66.3779 213.057 63.9609C214.508 61.5439 215.255 60.2695 215.299 60.0938C215.65 59.4785 216.178 59.2148 216.837 59.2148C217.144 59.2148 217.408 59.2588 217.716 59.4346C218.331 59.7861 218.595 60.2695 218.595 60.9287C218.595 61.2363 218.551 61.5 218.375 61.8076C218.067 62.3789 216.705 64.708 214.244 68.751C211.739 72.8379 208.795 77.1445 205.367 81.6709C201.895 86.1973 198.599 89.4932 195.391 91.4707C193.809 92.3936 192.403 92.833 191.217 92.833Z" fill="white"/>
<path d="M231.08 82.7256C230.685 82.7256 230.377 82.6377 230.113 82.4619C229.586 82.1543 229.235 81.8027 229.103 81.3633C228.971 80.9238 228.927 80.4844 228.927 80.0889C228.927 78.7266 229.63 76.0898 231.08 72.1787C232.97 67.3008 234.684 63.082 236.222 59.6104C237.76 56.1387 238.595 54.3369 238.727 54.1172C238.946 53.6777 239.21 53.4141 239.518 53.2822C239.825 53.1504 240.089 53.1064 240.265 53.1064C240.529 53.1064 240.792 53.1504 241.056 53.2822C241.495 53.502 241.759 53.8096 241.891 54.1172C242.023 54.4248 242.067 54.6445 242.067 54.8203C242.067 55.084 242.023 55.3477 241.891 55.6113C241.759 55.8311 240.968 57.6328 239.43 61.0605C237.892 64.4883 236.222 68.6191 234.376 73.4092V73.4971C236.617 69.8936 239.21 65.9385 242.154 61.6318C245.099 57.3691 247.867 54.0293 250.372 51.6123C251.998 50.1182 253.448 49.3711 254.679 49.3711C255.953 49.3711 256.92 49.9863 257.535 51.3047L257.579 51.3486C257.799 51.7881 257.887 52.3154 257.887 52.8867C257.887 54.2051 257.052 56.5781 255.426 60.0498L255.338 60.1816C253.361 64.2246 252.262 67.2568 251.998 69.3223C252.657 68.3994 253.361 67.3887 254.02 66.29C255.25 64.2246 256.7 62.2471 258.414 60.2695C259.249 59.3027 260.128 58.5557 261.007 57.9844C261.93 57.4131 262.677 57.1494 263.336 57.1494C263.776 57.1494 264.215 57.2373 264.654 57.4131C265.665 58.0283 266.193 58.7314 266.237 59.5225C266.28 60.3135 266.28 60.8408 266.28 61.0605C266.28 62.1592 266.061 63.7412 265.621 65.8506C265.314 67.3447 265.05 68.707 264.874 69.9814C264.698 71.2119 264.611 72.1348 264.611 72.7939C264.611 73.6289 264.698 74.376 264.874 75.0352C264.918 75.2549 265.006 75.3867 265.05 75.4746C265.094 75.5625 265.182 75.6064 265.226 75.6504C265.27 75.6943 265.358 75.6943 265.402 75.7383C265.445 75.7383 265.577 75.7383 265.709 75.7383C266.588 75.7383 268.39 74.8154 271.07 72.9697C274.147 70.8604 278.585 66.6855 284.342 60.4893L284.474 60.3574C284.825 60.0059 285.133 59.8301 285.397 59.7861C285.616 59.7861 285.792 59.7861 285.792 59.7861C286.188 59.7861 286.583 59.9619 286.935 60.2695C287.33 60.5771 287.506 60.8848 287.506 61.1484C287.506 61.3682 287.506 61.5439 287.506 61.5879C287.506 62.0713 287.33 62.5107 286.935 62.8623C283.551 66.5537 280.431 69.6738 277.574 72.2227C273.707 75.6064 270.939 77.6279 269.269 78.2871C267.555 78.9463 266.324 79.2539 265.489 79.2539C265.182 79.2539 264.874 79.21 264.654 79.1221C262.281 78.5508 261.051 76.4414 261.051 72.7939C261.051 70.8604 261.446 68.3115 262.194 65.1475C262.589 63.2139 262.809 61.8955 262.809 61.1924V61.0166C262.413 61.2363 261.798 61.8076 261.007 62.6426C259.513 64.3564 258.195 66.2021 257.008 68.1797C256.217 69.4541 255.426 70.5967 254.679 71.6074C253.888 72.6182 253.053 73.4092 252.13 73.9365C251.603 74.2002 251.163 74.2881 250.768 74.2881C250.196 74.2881 249.713 74.1562 249.318 73.8047C248.614 73.3213 248.263 72.3984 248.263 70.9922C248.263 68.0918 249.581 64.0049 252.174 58.7314L252.218 58.5557C252.613 57.7646 253.009 56.7979 253.492 55.6553C253.976 54.5566 254.239 53.6777 254.327 53.0186C254.02 53.1504 253.492 53.5459 252.701 54.2051C250.153 56.71 247.296 60.3135 244.132 65.0156C240.924 69.7178 238.331 73.7168 236.31 77.0127C235.079 78.9902 234.244 80.2646 233.805 80.8359C233.278 81.583 232.794 82.0664 232.355 82.3301C231.871 82.5938 231.476 82.7256 231.08 82.7256Z" fill="white"/>
<path d="M284.498 81.7148C281.994 81.7148 280.104 80.9238 278.829 79.3418C277.731 77.8916 277.204 76.2217 277.204 74.332C277.204 72.4424 277.467 70.6406 277.995 68.8828C278.522 67.125 279.049 65.7188 279.533 64.6641C280.807 61.8076 282.697 59.0391 285.158 56.2705L285.202 56.2266C285.421 56.0068 285.729 55.6992 286.124 55.2598C286.52 54.8643 287.003 54.4248 287.575 53.9854C288.673 53.1504 289.508 52.623 290.123 52.4912C290.695 52.3594 291.178 52.2715 291.486 52.2715C292.321 52.2715 293.024 52.5352 293.507 53.0186C294.298 53.8096 294.694 54.7324 294.694 55.8311C294.694 56.71 294.43 57.7207 293.859 58.8633C293.112 60.0938 291.749 61.3682 289.86 62.6426C287.926 63.917 286.124 64.6201 284.454 64.6641C284.147 64.6201 283.839 64.5762 283.532 64.4883L282.741 66.0703C281.422 69.2344 280.719 71.8711 280.719 73.8926C280.719 75.2109 281.027 76.2656 281.554 77.1006C282.125 77.7598 282.741 78.1113 283.356 78.1553C283.971 78.1553 284.367 78.1553 284.586 78.1553C285.377 78.1553 286.168 78.0674 286.915 77.8916C289.069 77.3643 291.31 76.1777 293.551 74.376C295.792 72.5742 297.858 70.6406 299.791 68.4873C301.681 66.3779 303.263 64.5322 304.45 62.9502C305.636 61.3682 306.295 60.5332 306.339 60.4014C306.647 60.0059 306.911 59.7422 307.174 59.6982C307.482 59.6543 307.658 59.6543 307.702 59.6543C308.097 59.6543 308.405 59.7422 308.756 59.9619C309.152 60.2695 309.415 60.5332 309.459 60.8408C309.503 61.1045 309.547 61.3242 309.547 61.4121C309.547 61.7637 309.415 62.1152 309.196 62.4668C308.976 62.8184 307.789 64.3564 305.636 67.125C303.483 69.8936 300.758 72.7061 297.55 75.6064C294.342 78.5508 291.046 80.4404 287.663 81.3193C286.52 81.583 285.465 81.7148 284.498 81.7148ZM286.037 60.7529C286.52 60.5332 287.047 60.2256 287.706 59.8301C288.497 59.3467 289.157 58.8193 289.728 58.3359C290.255 57.8525 290.607 57.457 290.783 57.1494C291.046 56.6221 291.178 56.2266 291.178 55.9189V55.8311C290.914 55.875 290.475 56.1826 289.816 56.71C289.332 57.1055 288.937 57.457 288.585 57.8086C288.234 58.1602 287.97 58.4238 287.75 58.6436C287.179 59.3027 286.608 60.0059 286.037 60.7529Z" fill="white"/>
</svg>
