<svg width="380" height="107" viewBox="0 0 380 107" fill="none" xmlns="http://www.w3.org/2000/svg">
<g clip-path="url(#clip0_304_85)">
<path d="M1.3208 83.6372H7.62837C11.8163 83.6372 13.9155 85.0912 13.9155 87.9788V88.501C13.9155 88.9003 13.8643 89.2792 13.7516 89.6478C13.639 90.0164 13.4649 90.3646 13.2192 90.6718C12.9734 90.9892 12.6457 91.2657 12.2362 91.5012C11.8266 91.7367 11.3248 91.921 10.7412 92.0541C11.9495 92.2179 12.9325 92.6275 13.6902 93.2931C14.4479 93.9484 14.8268 94.9007 14.8268 96.1294V96.7438C14.8268 98.2081 14.3148 99.3549 13.2806 100.184C12.2464 101.014 10.649 101.434 8.48849 101.434H1.3208V83.627V83.6372ZM3.21512 85.1424V91.4193H7.6898C9.0619 91.4193 10.1268 91.2042 10.8743 90.7742C11.6218 90.3441 12.0007 89.5761 12.0007 88.4498V88.0095C12.0007 86.9548 11.6423 86.2176 10.9153 85.7875C10.1883 85.3574 9.05166 85.1424 7.49525 85.1424H3.21512ZM3.21512 99.9181H8.31441C9.87083 99.9181 11.0177 99.6519 11.7549 99.1194C12.4922 98.5869 12.871 97.7883 12.871 96.7336V96.1909C12.871 95.6482 12.7891 95.1669 12.6253 94.7573C12.4614 94.3478 12.1747 93.9996 11.7754 93.7232C11.376 93.4467 10.8436 93.2317 10.1883 93.0985C9.53292 92.9552 8.70352 92.8835 7.72052 92.8835H3.21512V99.9181Z" fill="#2460A5"/>
<path d="M41.4085 100.142C40.8248 100.521 40.0876 100.869 39.2172 101.177C38.3366 101.494 37.282 101.648 36.0327 101.648C34.0565 101.648 32.5206 101.115 31.4249 100.05C30.3293 98.9854 29.7764 97.4904 29.7764 95.5449V93.8861C29.7764 91.9918 30.3088 90.5173 31.384 89.4626C32.4591 88.408 33.9234 87.8857 35.787 87.8857C37.6506 87.8857 39.207 88.4284 40.2207 89.5036C41.2344 90.5787 41.7464 92.0635 41.7464 93.9373V95.3197H31.6502V95.5449C31.6502 97.0297 32.0393 98.1663 32.8278 98.9649C33.6162 99.7636 34.6914 100.163 36.0635 100.163C37.0465 100.163 37.9168 100.03 38.6745 99.7636C39.422 99.4974 40.0671 99.2004 40.5996 98.8523L41.4187 100.132L41.4085 100.142ZM39.8726 93.9168V93.6916C39.8726 92.2887 39.5142 91.2238 38.8077 90.4763C38.0909 89.7391 37.0874 89.3602 35.787 89.3602C34.4866 89.3602 33.4524 89.7493 32.7254 90.5378C31.9983 91.316 31.64 92.3707 31.64 93.6916V93.9168H39.8726Z" fill="#2460A5"/>
<path d="M57.9558 88.1323L62.5431 99.5699L67.0383 88.1323H68.9633L61.2837 106.953L59.6965 106.43L61.5909 101.659L56.0513 88.1221H57.9763L57.9558 88.1323Z" fill="#2460A5"/>
<path d="M89.4321 87.8857C91.4288 87.8857 92.975 88.408 94.0706 89.4626C95.1663 90.5173 95.7192 92.002 95.7192 93.9373V95.5961C95.7192 97.5212 95.1663 99.0161 94.0706 100.071C92.975 101.125 91.4288 101.648 89.4321 101.648C87.4354 101.648 85.8892 101.125 84.7936 100.071C83.698 99.0161 83.145 97.5314 83.145 95.5961V93.9373C83.145 91.9918 83.698 90.4968 84.7936 89.4524C85.8892 88.408 87.4354 87.8857 89.4321 87.8857ZM89.4321 100.163C90.8042 100.163 91.8794 99.7841 92.6576 99.0161C93.4358 98.2482 93.8249 97.0809 93.8249 95.4937V94.0397C93.8249 92.4628 93.4358 91.2853 92.6576 90.5173C91.8794 89.7493 90.8042 89.3705 89.4321 89.3705C88.06 89.3705 86.9849 89.7493 86.2067 90.5173C85.4284 91.2853 85.0393 92.4526 85.0393 94.0397V95.4937C85.0393 97.0706 85.4284 98.2482 86.2067 99.0161C86.9849 99.7841 88.06 100.163 89.4321 100.163Z" fill="#2460A5"/>
<path d="M118.134 87.8857C119.833 87.8857 121.144 88.3056 122.076 89.135C122.997 89.9644 123.458 91.0805 123.458 92.4833V101.453H121.595V92.9031C121.595 92.4219 121.543 91.9816 121.431 91.5617C121.318 91.1419 121.124 90.7733 120.837 90.4456C120.55 90.1282 120.171 89.8722 119.68 89.6879C119.199 89.5036 118.584 89.4217 117.857 89.4217C117.233 89.4217 116.659 89.5241 116.137 89.7289C115.615 89.9336 115.174 90.1999 114.806 90.5275C114.437 90.8552 114.15 91.2238 113.946 91.6129C113.741 92.0123 113.628 92.4014 113.628 92.8007V101.443H111.765V88.1315H113.608V89.9848C113.772 89.7391 113.987 89.4831 114.263 89.2271C114.54 88.9711 114.867 88.7459 115.256 88.5513C115.645 88.3568 116.065 88.1929 116.547 88.0701C117.018 87.9472 117.55 87.8857 118.134 87.8857Z" fill="#2460A5"/>
<path d="M149.753 99.6921H149.722C149.303 100.368 148.678 100.859 147.859 101.177C147.04 101.494 146.19 101.648 145.33 101.648C144.469 101.648 143.681 101.525 142.975 101.269C142.258 101.013 141.643 100.644 141.111 100.153C140.578 99.6716 140.169 99.0675 139.872 98.361C139.575 97.6544 139.432 96.8455 139.432 95.9444V93.5996C139.432 92.6985 139.575 91.8896 139.872 91.183C140.169 90.4765 140.568 89.8826 141.09 89.3911C141.613 88.9099 142.237 88.531 142.954 88.275C143.681 88.019 144.459 87.8961 145.299 87.8961C146.395 87.8961 147.306 88.0805 148.043 88.4593C148.77 88.8382 149.333 89.2785 149.712 89.77V82.7764H151.576V101.443H149.733V99.6921H149.753ZM141.295 95.6884C141.295 97.122 141.674 98.2279 142.422 98.9958C143.169 99.774 144.173 100.153 145.412 100.153C146.016 100.153 146.579 100.081 147.101 99.9481C147.623 99.8047 148.074 99.5897 148.463 99.303C148.852 99.0163 149.149 98.6477 149.384 98.2176C149.61 97.7773 149.733 97.2653 149.733 96.6714V92.6678C149.733 92.2684 149.63 91.8793 149.415 91.4902C149.2 91.1011 148.903 90.753 148.524 90.4253C148.135 90.1079 147.685 89.8417 147.152 89.6471C146.62 89.4526 146.046 89.3502 145.422 89.3502C144.162 89.3502 143.159 89.7393 142.422 90.5277C141.684 91.3059 141.305 92.4118 141.305 93.8248V95.6782L141.295 95.6884Z" fill="#2460A5"/>
<path d="M189.401 99.8665V106.737H187.537V88.1422H189.38V90.0161C189.821 89.3403 190.435 88.818 191.234 88.4494C192.032 88.0808 192.892 87.8965 193.824 87.8965C194.705 87.8965 195.503 88.0194 196.22 88.2754C196.947 88.5313 197.562 88.9 198.074 89.3915C198.586 89.8727 198.985 90.4769 199.272 91.1834C199.558 91.8899 199.702 92.6988 199.702 93.5999V95.9448C199.702 96.8459 199.558 97.6548 199.261 98.3613C198.964 99.0678 198.565 99.6617 198.043 100.153C197.521 100.634 196.896 101.013 196.179 101.269C195.452 101.525 194.674 101.648 193.834 101.648C192.79 101.648 191.899 101.474 191.162 101.116C190.425 100.757 189.851 100.348 189.452 99.8665H189.421H189.401ZM197.828 93.8354C197.828 92.4019 197.459 91.3063 196.712 90.5485C195.975 89.7908 194.971 89.4119 193.712 89.4119C193.2 89.4119 192.688 89.4939 192.176 89.6577C191.664 89.8215 191.203 90.0673 190.793 90.3847C190.384 90.7021 190.046 91.0912 189.79 91.5418C189.534 91.9923 189.401 92.5145 189.401 93.1084V97.0097C189.401 97.409 189.503 97.7879 189.718 98.1565C189.933 98.5251 190.23 98.863 190.609 99.16C190.998 99.4569 191.449 99.6925 191.971 99.8768C192.493 100.061 193.077 100.143 193.712 100.143C194.971 100.143 195.975 99.7539 196.712 98.9654C197.449 98.1872 197.828 97.0814 197.828 95.6683V93.815V93.8354Z" fill="#2460A5"/>
<path d="M215.768 82.7764H217.631V101.443H215.768V82.7764Z" fill="#2460A5"/>
<path d="M238.387 101.648C236.974 101.648 235.837 101.31 234.957 100.634C234.076 99.9586 233.636 99.0269 233.636 97.8391V97.2964C233.636 96.211 234.076 95.3304 234.957 94.6546C235.837 93.9788 237.138 93.6408 238.858 93.6408H243.025V92.4019C243.025 91.4291 242.728 90.6816 242.135 90.1696C241.541 89.6474 240.67 89.3914 239.513 89.3914C238.704 89.3914 237.936 89.5143 237.209 89.7703C236.482 90.0263 235.796 90.354 235.151 90.7431L234.25 89.4631C234.946 89.033 235.714 88.6644 236.564 88.347C237.414 88.0296 238.407 87.876 239.544 87.876C241.213 87.876 242.513 88.2446 243.455 88.9921C244.398 89.7293 244.869 90.7738 244.869 92.1254V101.433H243.056V99.8051H243.025C242.882 100.02 242.667 100.235 242.38 100.46C242.094 100.686 241.766 100.88 241.377 101.065C240.537 101.443 239.534 101.628 238.387 101.628V101.648ZM243.025 95.0539H238.878C237.691 95.0539 236.83 95.2689 236.298 95.699C235.766 96.1291 235.499 96.682 235.499 97.3783V97.7776C235.499 98.2077 235.591 98.5763 235.776 98.8733C235.96 99.1804 236.206 99.4262 236.503 99.631C236.8 99.8255 237.148 99.9689 237.517 100.061C237.895 100.153 238.274 100.194 238.653 100.194C239.237 100.194 239.769 100.133 240.24 99.9996C240.711 99.8665 241.172 99.6822 241.612 99.4364C242.012 99.2112 242.35 98.9245 242.616 98.5865C242.882 98.2486 243.015 97.8288 243.015 97.3168V95.0744L243.025 95.0539Z" fill="#2460A5"/>
<path d="M262.501 89.5659H259.972V88.1324H262.501V84.7021H264.364V88.1324H268.45V89.5659H264.364V97.6654C264.364 98.5665 264.528 99.2014 264.846 99.57C265.163 99.9284 265.696 100.113 266.453 100.113C267.211 100.113 267.877 100.031 268.542 99.8669L268.819 101.249C268.522 101.352 268.133 101.423 267.651 101.485C267.17 101.546 266.72 101.567 266.32 101.567C265.675 101.567 265.122 101.505 264.631 101.372C264.149 101.239 263.75 101.024 263.433 100.727C263.125 100.43 262.89 100.041 262.736 99.5495C262.583 99.0682 262.501 98.4641 262.501 97.7371V89.5659Z" fill="#2460A5"/>
<path d="M285.55 89.5655H283.021V88.1319H285.55V86.4526C285.55 85.7256 285.632 85.1215 285.796 84.6402C285.96 84.159 286.206 83.7596 286.523 83.4627C286.84 83.1657 287.24 82.9507 287.721 82.8176C288.192 82.6845 288.745 82.623 289.37 82.623C289.769 82.623 290.219 82.6538 290.701 82.705C291.182 82.7664 291.571 82.8381 291.868 82.9405L291.591 84.3228C290.936 84.159 290.24 84.0771 289.503 84.0771C288.765 84.0771 288.212 84.2614 287.895 84.6198C287.578 84.9781 287.414 85.613 287.414 86.5243V88.1319H291.499V89.5655H287.414V101.443H285.55V89.5655Z" fill="#2460A5"/>
<path d="M312.337 87.8857C314.334 87.8857 315.88 88.408 316.975 89.4626C318.071 90.5173 318.624 92.002 318.624 93.9373V95.5961C318.624 97.5212 318.071 99.0161 316.975 100.071C315.88 101.125 314.334 101.648 312.337 101.648C310.34 101.648 308.794 101.125 307.698 100.071C306.603 99.0161 306.05 97.5314 306.05 95.5961V93.9373C306.05 91.9918 306.603 90.4968 307.698 89.4524C308.794 88.408 310.34 87.8857 312.337 87.8857ZM312.337 100.163C313.709 100.163 314.784 99.7841 315.562 99.0161C316.341 98.2482 316.73 97.0809 316.73 95.4937V94.0397C316.73 92.4628 316.341 91.2853 315.562 90.5173C314.784 89.7493 313.709 89.3705 312.337 89.3705C310.965 89.3705 309.89 89.7493 309.111 90.5173C308.333 91.2853 307.944 92.4526 307.944 94.0397V95.4937C307.944 97.0706 308.333 98.2482 309.111 99.0161C309.89 99.7841 310.965 100.163 312.337 100.163Z" fill="#2460A5"/>
<path d="M342.298 89.862C341.786 89.6777 341.192 89.5957 340.516 89.5957C339.912 89.5957 339.359 89.6981 338.868 89.9132C338.376 90.1282 337.956 90.4251 337.608 90.804C337.26 91.1829 336.994 91.6334 336.809 92.1659C336.625 92.6983 336.533 93.2717 336.533 93.8964V101.453H334.669V88.1417H336.513V90.4866C336.676 90.1692 336.881 89.862 337.127 89.5445C337.373 89.2271 337.68 88.9507 338.028 88.7049C338.386 88.4592 338.786 88.2646 339.236 88.111C339.687 87.9677 340.189 87.8857 340.762 87.8857C341.182 87.8857 341.561 87.9062 341.899 87.9472C342.236 87.9881 342.564 88.0598 342.871 88.152L342.298 89.8517V89.862Z" fill="#2460A5"/>
<path d="M372.71 87.8857C374.389 87.8857 375.628 88.2953 376.406 89.1247C377.184 89.9439 377.573 91.0702 377.573 92.4833V101.453H375.71V92.9338C375.71 92.3911 375.659 91.8996 375.556 91.4798C375.454 91.0498 375.28 90.6811 375.034 90.3842C374.788 90.077 374.45 89.8415 374.02 89.6777C373.59 89.5138 373.047 89.4319 372.392 89.4319C371.788 89.4319 371.256 89.5343 370.805 89.7289C370.344 89.9234 369.955 90.1794 369.638 90.4968C369.32 90.8142 369.074 91.1624 368.9 91.5617C368.726 91.9611 368.634 92.3399 368.614 92.7188V101.463H366.75V92.9441C366.75 92.4014 366.699 91.9099 366.597 91.4901C366.494 91.06 366.32 90.6914 366.074 90.3944C365.829 90.0872 365.491 89.8517 365.061 89.6879C364.631 89.5241 364.088 89.4422 363.432 89.4422C362.828 89.4422 362.286 89.5445 361.815 89.7493C361.344 89.9541 360.944 90.2204 360.617 90.548C360.299 90.8757 360.053 91.2443 359.89 91.6334C359.726 92.0328 359.644 92.4219 359.644 92.8212V101.463H357.78V88.152H359.623V90.0053C359.787 89.7391 359.992 89.4831 360.238 89.2271C360.484 88.9711 360.78 88.7459 361.129 88.5513C361.477 88.3568 361.866 88.1929 362.296 88.0803C362.726 87.9677 363.217 87.9062 363.76 87.9062C364.948 87.9062 365.91 88.1213 366.637 88.5411C367.364 88.9609 367.897 89.5548 368.225 90.333C368.388 90.0565 368.603 89.7698 368.87 89.4831C369.136 89.1964 369.453 88.9404 369.832 88.7049C370.211 88.4694 370.641 88.2851 371.122 88.1417C371.604 87.9984 372.146 87.9165 372.73 87.9165L372.71 87.8857Z" fill="#2460A5"/>
<path d="M36.9033 16.0757C40.436 16.0757 43.4259 16.3829 45.8527 16.987C48.2897 17.5911 50.225 18.5434 51.679 19.8336C53.1228 21.1238 54.1775 22.7928 54.8021 24.8202C55.4369 26.8579 55.7544 29.2949 55.7544 32.1415V53.2145C55.7544 54.4842 55.6622 55.5184 55.4779 56.3376C55.2936 57.1568 54.9762 57.8018 54.5256 58.2729C54.0751 58.7541 53.4812 59.0818 52.7439 59.2661C51.9964 59.4504 51.0544 59.5426 49.8871 59.5426H12.1953C9.87093 59.5426 7.93565 59.3173 6.369 58.8668C4.81259 58.4162 3.55312 57.7506 2.61109 56.8496C1.65881 55.9485 0.982997 54.7914 0.593894 53.3681C0.194551 51.9448 0 50.2553 0 48.2995V44.5007C0 42.8623 0.194551 41.3981 0.593894 40.1079C0.993237 38.8177 1.65881 37.7221 2.61109 36.821C3.56336 35.9199 4.81259 35.2544 6.369 34.8038C7.92541 34.3533 9.87093 34.128 12.1953 34.128H44.4294V32.6228C44.4294 31.3531 44.2963 30.2677 44.0301 29.3768C43.7638 28.4758 43.3133 27.759 42.6887 27.1958C42.0538 26.6429 41.1835 26.2333 40.0776 25.9671C38.9717 25.7008 37.5484 25.5677 35.7975 25.5677H2.693C1.74072 25.5677 1.2697 25.0967 1.2697 24.1444V17.4887C1.2697 16.5364 1.75096 16.0654 2.693 16.0654H36.9136L36.9033 16.0757ZM42.1358 50.8492C42.9754 50.8492 43.5693 50.6546 43.9174 50.2553C44.2553 49.856 44.4294 49.1597 44.4294 48.1562V41.1831H15.4412C13.8029 41.1831 12.6561 41.5107 12.0008 42.166C11.3352 42.8316 11.0075 43.7941 11.0075 45.0638V46.7227C11.0075 48.146 11.3352 49.1904 12.0008 49.8457C12.6561 50.5113 13.8132 50.839 15.4412 50.839H42.1358V50.8492Z" fill="#58C2E7"/>
<path d="M73.8171 0C74.9742 0 75.5579 0.583655 75.5579 1.74072V9.2668C75.5579 10.4853 74.9742 11.0894 73.8171 11.0894H66.0556C64.8473 11.0894 64.2329 10.4853 64.2329 9.2668V1.74072C64.2329 0.573415 64.837 0 66.0556 0H73.8171ZM73.8171 16.0761C74.9742 16.0761 75.5579 16.6802 75.5579 17.8987V57.8125C75.5579 58.9696 74.9742 59.5532 73.8171 59.5532H66.0556C64.8985 59.5532 64.3148 58.9696 64.3148 57.8125V17.8987C64.3148 16.6802 64.8985 16.0761 66.0556 16.0761H73.8171Z" fill="#58C2E7"/>
<path d="M126.407 16.0762C127.36 16.0762 127.831 16.5574 127.831 17.4995V24.1552C127.831 25.1075 127.349 25.5785 126.407 25.5785H105.345C103.655 25.5785 102.252 25.7218 101.146 26.0188C100.04 26.3055 99.1497 26.7867 98.4943 27.4421C97.8288 28.0974 97.368 28.9985 97.112 30.1351C96.8458 31.2717 96.7126 32.654 96.7126 34.2923V57.8126C96.7126 58.9697 96.129 59.5533 94.9719 59.5533H87.2103C85.9918 59.5533 85.3877 58.9697 85.3877 57.8126V32.1523C85.3877 29.3057 85.7051 26.8584 86.34 24.831C86.9748 22.8036 88.0193 21.1345 89.4733 19.8443C90.9273 18.5541 92.8523 17.6019 95.2586 16.9977C97.6547 16.3936 100.655 16.0864 104.249 16.0864H126.428L126.407 16.0762Z" fill="#58C2E7"/>
<path d="M173.847 17.1924C177.38 17.1924 180.37 17.4996 182.797 18.1037C185.223 18.7078 187.169 19.6601 188.613 20.9503C190.067 22.2405 191.111 23.9095 191.736 25.937C192.371 27.9746 192.688 30.4116 192.688 33.2582V44.6651C192.688 47.5117 192.371 49.9589 191.736 51.9966C191.101 54.0343 190.067 55.6931 188.613 56.9833C187.159 58.2837 185.223 59.2155 182.797 59.7992C180.37 60.3828 177.38 60.6695 173.847 60.6695H144.142V76.4282C144.142 77.5853 143.559 78.1689 142.402 78.1689H134.64C133.432 78.1689 132.828 77.5853 132.828 76.4282V33.2685C132.828 30.4219 133.145 27.9746 133.78 25.9472C134.415 23.9198 135.449 22.2507 136.913 20.9605C138.357 19.6704 140.282 18.7181 142.699 18.1139C145.095 17.5098 148.095 17.2026 151.689 17.2026H173.868L173.847 17.1924ZM144.142 51.1672H172.741C174.482 51.1672 175.905 51.0341 177.011 50.7679C178.117 50.5016 179.008 50.0306 179.663 49.3446C180.319 48.6585 180.779 47.7574 181.056 46.6516C181.312 45.5457 181.445 44.1429 181.445 42.4534V35.4085C181.445 33.7702 181.312 32.3879 181.056 31.2513C180.79 30.1147 180.319 29.2136 179.663 28.5583C179.008 27.903 178.117 27.4217 177.011 27.135C175.905 26.8483 174.482 26.6947 172.741 26.6947H152.774C151.085 26.6947 149.682 26.838 148.576 27.135C147.47 27.4217 146.59 27.903 145.924 28.5583C145.258 29.2136 144.808 30.1147 144.542 31.2513C144.275 32.3879 144.142 33.7702 144.142 35.4085V51.1672Z" fill="#2460A5"/>
<path d="M237.199 17.1919C240.732 17.1919 243.722 17.4991 246.149 18.1032C248.586 18.7073 250.521 19.6596 251.975 20.9498C253.419 22.24 254.463 23.909 255.098 25.9365C255.733 27.9741 256.05 30.4111 256.05 33.2577V54.3307C256.05 55.6004 255.958 56.6346 255.774 57.4538C255.589 58.273 255.272 58.9181 254.822 59.3891C254.371 59.8703 253.777 60.198 253.04 60.3823C252.303 60.5666 251.35 60.6588 250.193 60.6588H212.491C210.167 60.6588 208.232 60.4335 206.675 59.983C205.119 59.5324 203.859 58.8669 202.917 57.9658C201.965 57.0647 201.299 55.9076 200.9 54.4843C200.501 53.061 200.306 51.3715 200.306 49.4157V45.6169C200.306 43.9785 200.501 42.5143 200.9 41.2241C201.299 39.9339 201.975 38.8383 202.917 37.9372C203.87 37.0361 205.119 36.3706 206.675 35.92C208.232 35.4695 210.177 35.2442 212.491 35.2442H244.725V33.739C244.725 32.4693 244.592 31.3839 244.336 30.4931C244.07 29.592 243.619 28.865 242.985 28.312C242.35 27.7591 241.479 27.3495 240.363 27.0833C239.257 26.8171 237.834 26.6839 236.093 26.6839H202.989C202.037 26.6839 201.566 26.2129 201.566 25.2606V18.6049C201.566 17.6527 202.047 17.1816 202.989 17.1816H237.21L237.199 17.1919ZM242.432 51.9552C243.271 51.9552 243.865 51.7606 244.213 51.3613C244.562 50.9619 244.725 50.2656 244.725 49.2622V42.289H215.737C214.099 42.289 212.952 42.6167 212.297 43.272C211.641 43.9376 211.303 44.9001 211.303 46.1698V47.8286C211.303 49.2519 211.641 50.2963 212.297 50.9517C212.952 51.6173 214.109 51.9449 215.737 51.9449H242.432V51.9552Z" fill="#2460A5"/>
<path d="M314.661 17.1924C315.614 17.1924 316.085 17.6736 316.085 18.6157V24.954C316.085 25.9062 315.603 26.3773 314.661 26.3773H278.935C277.297 26.3773 276.161 26.6844 275.536 27.2886C274.901 27.8927 274.584 28.7836 274.584 29.9406V31.1284C274.584 32.1831 274.901 33.0125 275.536 33.6269C276.171 34.231 277.307 34.5382 278.935 34.5382H305.63C310.064 34.5382 313.238 35.4597 315.132 37.3131C317.027 39.1665 317.979 41.7775 317.979 45.1566V49.5903C317.979 51.3311 317.774 52.8875 317.344 54.2698C316.914 55.6419 316.218 56.799 315.245 57.7513C314.272 58.7035 312.992 59.4305 311.405 59.9323C309.818 60.434 307.862 60.6798 305.538 60.6798H264.989C264.047 60.6798 263.566 60.1985 263.566 59.2565V52.9182C263.566 51.9761 264.047 51.4949 264.989 51.4949H302.538C304.176 51.4949 305.323 51.2082 305.978 50.6245C306.633 50.0409 306.961 49.0681 306.961 47.696V45.5559C306.961 44.5013 306.633 43.6821 305.978 43.0984C305.313 42.5148 304.166 42.2281 302.538 42.2281H275.925C271.491 42.2281 268.327 41.3168 266.423 39.4941C264.518 37.6715 263.576 35.0194 263.576 31.5278V28.0463C263.576 26.408 263.781 24.913 264.211 23.5716C264.631 22.22 265.327 21.0732 266.31 20.1311C267.283 19.1789 268.563 18.4621 270.15 17.9501C271.737 17.4484 273.683 17.1924 276.017 17.1924H314.661Z" fill="#2460A5"/>
<path d="M376.672 17.1924C377.624 17.1924 378.095 17.6736 378.095 18.6157V24.954C378.095 25.9062 377.624 26.3773 376.672 26.3773H340.956C339.318 26.3773 338.182 26.6844 337.557 27.2886C336.922 27.8927 336.605 28.7836 336.605 29.9406V31.1284C336.605 32.1831 336.922 33.0125 337.557 33.6269C338.192 34.231 339.318 34.5382 340.956 34.5382H367.651C372.085 34.5382 375.259 35.4597 377.153 37.3131C379.058 39.1665 380 41.7775 380 45.1566V49.5903C380 51.3311 379.785 52.8875 379.365 54.2698C378.935 55.6419 378.239 56.799 377.266 57.7513C376.293 58.7035 375.013 59.4305 373.426 59.9323C371.839 60.434 369.883 60.6798 367.569 60.6798H327.01C326.058 60.6798 325.587 60.1985 325.587 59.2565V52.9182C325.587 51.9761 326.058 51.4949 327.01 51.4949H364.559C366.197 51.4949 367.344 51.2082 368.009 50.6245C368.665 50.0409 368.992 49.0681 368.992 47.696V45.5559C368.992 44.5013 368.665 43.6821 368.009 43.0984C367.344 42.5148 366.197 42.2281 364.559 42.2281H337.946C333.512 42.2281 330.338 41.3168 328.444 39.4941C326.549 37.6715 325.597 35.0194 325.597 31.5278V28.0463C325.597 26.408 325.802 24.913 326.232 23.5716C326.652 22.22 327.348 21.0732 328.331 20.1311C329.304 19.1789 330.594 18.4621 332.181 17.9501C333.768 17.4484 335.714 17.1924 338.038 17.1924H376.682H376.672Z" fill="#2460A5"/>
</g>
<defs>
<clipPath id="clip0_304_85">
<rect width="380" height="106.952" fill="white"/>
</clipPath>
</defs>
</svg>
