<svg width="198" height="240" viewBox="0 0 198 240" fill="none" xmlns="http://www.w3.org/2000/svg">
<path d="M84.08 218.59C84.08 205.98 88.5 187.14 97.21 161.93C91.23 169.08 84.6 176.49 77.2 184.15C52.9 209.62 33.92 222.36 20.41 222.36L18.33 222.23C15.86 222.1 13.26 221.32 10.4 219.63C7.41 217.94 4.81 214.95 2.6 210.66C0.91 206.5 0 202.21 0 197.66C0 194.8 0.65 190.64 1.82 185.31C3.12 179.98 4.81 175.17 6.89 170.88C10.79 162.56 16.38 154.25 23.65 146.06C24.04 145.54 24.95 144.63 26.25 143.33C27.42 142.16 28.98 140.73 30.67 139.3C34.96 135.92 38.86 134.23 42.5 134.23C43.41 134.23 44.45 134.49 45.49 134.88C46.66 135.27 47.57 135.79 48.22 136.44C50.56 138.78 51.73 141.51 51.73 144.76C51.73 147.36 50.95 150.35 49.26 153.73C47.18 157.11 44.06 160.1 39.77 162.57C35.48 165.17 31.32 166.47 27.55 166.47C25.6 166.47 23.65 166.08 21.96 165.17C19.62 168.68 17.8 172.06 16.37 175.18C12.47 184.41 10.52 191.94 10.52 198.18C10.52 201.17 11.04 203.77 12.08 206.11C13.12 208.45 14.29 210.01 15.59 210.66C16.89 211.44 18.06 211.83 19.23 211.96H20.14C22.09 211.96 24.95 211.31 28.72 209.88C32.49 208.45 37.69 205.2 44.45 200.13C51.21 195.06 59.66 187.39 69.79 177C78.5 167.77 86.42 158.68 93.57 149.97C100.72 141.26 105.92 134.64 109.3 130.09L113.07 120.86C122.69 97.99 132.17 77.19 141.4 58.61C150.63 40.03 157.13 27.81 161.15 21.83C170.9 7.28 179.34 0 186.23 0L188.57 0.26C192.86 1.43 195.59 3.9 196.89 7.93C197.41 9.1 197.67 10.53 197.67 12.35C197.67 14.17 197.28 17.03 196.5 20.93C195.72 24.7 192.6 31.72 187.27 41.72C181.81 51.73 172.97 65.37 160.89 82.4C150.88 96.18 141.79 108.39 133.34 118.92C124.89 129.45 119.3 136.33 116.71 139.32C108.39 160.5 102.67 177.14 99.43 189.22C96.18 201.44 94.62 210.4 94.49 215.99V217.29C94.49 222.23 94.88 225.35 95.79 226.65C96.18 227.56 96.57 228.08 97.09 228.34C97.48 228.73 98 228.86 98.52 228.99C98.91 229.12 99.3 229.12 99.82 229.12C102.29 229.12 106.32 227.69 111.91 224.7C117.5 221.71 125.69 214.56 136.73 203C144.14 194.81 150.9 186.76 157 178.7C163.11 170.77 168.05 164.14 171.69 158.95L172.21 158.3C173.25 156.87 174.68 156.09 176.5 156.09C177.41 156.09 178.45 156.48 179.62 157.26C180.66 158.04 181.31 159.08 181.57 160.51V161.16C181.57 162.07 181.18 163.37 180.14 165.06C171.69 176.89 162.73 188.45 153.37 199.76C143.88 211.07 134.66 220.42 125.43 227.83C116.2 235.24 107.63 239.14 99.7 239.4C89.3 239.4 84.1 232.51 84.1 218.61L84.08 218.59ZM33.01 154.39C38.6 151.53 41.33 148.41 41.33 145.16V144.9C40.55 145.03 39.25 145.94 37.3 147.37V147.5H37.17C35.74 148.67 34.44 149.84 33.4 150.88C32.36 152.05 31.71 152.7 31.45 152.96L28.85 155.95C30.02 155.82 31.32 155.3 33.01 154.39ZM152.44 76.42C161.15 64.07 168.03 53.81 172.97 45.62C177.78 37.43 181.29 30.93 183.37 26.13C185.45 21.32 186.62 17.81 187.01 15.47C187.14 14.3 187.27 13.39 187.27 12.74C187.27 11.96 187.27 11.57 187.14 11.31C187.01 11.05 187.01 10.79 186.88 10.66C186.75 10.53 186.62 10.53 186.23 10.4C186.1 10.4 185.71 10.53 185.06 10.92C184.28 11.31 183.24 11.96 181.94 13C180.51 14.17 178.82 15.86 176.87 18.2C174.79 20.54 172.45 23.66 169.85 27.56C166.73 32.24 161.66 41.6 154.51 55.63C147.36 69.8 139.56 86.04 131.38 104.36C138.14 95.78 145.16 86.43 152.43 76.42H152.44Z" fill="white"/>
</svg>
