<svg width="453" height="251" viewBox="0 0 453 251" fill="none" xmlns="http://www.w3.org/2000/svg">
<path d="M168.75 250.977C167.188 250.977 165.918 250.293 165.039 249.023C164.844 248.828 164.648 248.535 164.551 248.047C164.355 247.559 164.258 246.875 164.16 245.898V245.117C164.16 244.141 164.258 242.871 164.355 241.309C164.551 239.648 164.941 237.402 165.43 234.375C165.918 231.348 166.602 227.637 167.578 223.145C174.805 188.867 187.012 148.828 204.004 103.223C191.016 104.59 175.977 106.738 158.691 109.668C141.406 112.598 123.438 116.504 104.883 121.387C97.4609 140.625 91.6992 157.031 87.6953 170.605C82.1289 189.258 78.3203 203.613 76.2695 213.867C74.4141 223.438 73.4375 228.711 73.4375 229.492V229.59C73.2422 230.566 72.7539 231.348 72.0703 232.031C71.3867 232.715 70.5078 233.008 69.5312 233.008L69.043 232.91C67.9688 232.812 67.0898 232.324 66.5039 231.543C65.918 230.664 65.625 229.785 65.625 228.809C65.625 228.32 66.1133 225.293 67.0898 219.727V219.629C67.3828 217.09 67.4805 214.551 67.4805 212.207C67.4805 205.371 66.2109 199.121 63.5742 193.359C60.9375 187.598 56.8359 182.812 51.3672 179.199C45.8984 175.586 40.0391 173.34 33.7891 172.266C31.3477 171.973 28.8086 171.875 26.0742 171.875C23.1445 171.875 20.0195 171.973 16.6992 172.266C13.4766 172.559 10.5469 172.754 8.00781 172.754C7.32422 172.754 6.54297 172.656 5.56641 172.461C4.49219 172.363 3.51562 171.973 2.53906 171.484C1.5625 170.996 0.78125 170.117 0.292969 168.945C0.0976562 168.359 0 167.676 0 167.09C0 165.625 0.585938 164.16 1.85547 162.598C3.125 160.938 4.78516 159.375 6.93359 157.715C29.1992 139.844 59.8633 125.586 99.0234 114.844C110.449 85.3516 126.66 51.1719 147.656 12.3047L148.926 10.0586C149.805 8.69141 151.074 8.00781 152.539 8.00781C153.223 8.00781 153.711 8.10547 154.297 8.39844C154.297 8.49609 154.395 8.59375 154.688 8.69141C154.883 8.78906 155.078 8.98438 155.371 9.27734C155.664 9.57031 155.859 9.96094 156.055 10.3516C156.152 10.7422 156.25 11.1328 156.25 11.6211C156.25 11.7188 156.25 12.0117 156.25 12.3047C156.25 12.6953 156.055 13.2812 155.664 14.0625L151.562 21.6797L151.074 22.3633C133.105 55.957 118.945 85.9375 108.496 112.305C143.262 103.809 176.172 98.0469 207.129 95.0195C218.164 66.0156 232.227 35.0586 249.219 2.14844C250 0.683594 251.172 0 252.734 0C253.32 0 253.906 0.195312 254.492 0.488281C255.957 1.26953 256.641 2.34375 256.641 3.90625C256.641 4.49219 256.445 5.07812 256.152 5.76172C240.039 37.1094 226.562 66.5039 215.82 94.1406L220.508 93.75C228.613 93.1641 233.398 92.8711 235.059 92.8711C235.449 92.8711 235.938 92.8711 236.523 92.9688C237.109 93.0664 237.695 93.2617 238.379 93.6523C238.965 94.043 239.453 94.6289 239.746 95.5078C239.941 95.9961 240.039 96.4844 240.039 96.9727C240.039 97.4609 239.844 98.0469 239.551 98.7305C239.258 99.4141 238.574 100 237.598 100.488C237.109 100.684 236.523 100.781 236.035 100.781L235.156 100.684C232.91 100.684 225.391 101.27 212.695 102.344C203.32 127.051 195.996 148.438 190.625 166.406C184.473 186.621 179.98 203.125 177.148 216.113C174.219 229.102 172.559 237.988 172.07 242.676C173.047 243.457 173.535 244.434 173.535 245.703C173.535 246.289 173.438 246.875 173.145 247.461C172.852 248.047 172.461 248.73 171.777 249.512C171.094 250.391 170.02 250.879 168.75 250.977ZM72.6562 195.117C78.125 173.34 85.7422 149.707 95.5078 124.023C59.9609 134.277 32.0312 147.559 11.8164 163.77L10.5469 164.941C19.1406 164.355 24.0234 164.062 25.3906 164.062C28.7109 164.062 31.9336 164.258 35.0586 164.648C48.1445 166.895 58.3984 172.754 65.7227 182.031C68.75 185.938 70.9961 190.332 72.6562 195.117Z" fill="white"/>
<path d="M287.262 194.824C279.449 194.824 275.543 189.648 275.543 179.199C275.543 169.727 278.863 155.566 285.406 136.621C280.914 141.992 275.934 147.559 270.367 153.32C252.105 172.461 237.848 182.031 227.691 182.031L226.129 181.934C224.273 181.836 222.32 181.25 220.172 179.98C217.926 178.711 215.973 176.465 214.312 173.242C213.043 170.117 212.359 166.895 212.359 163.477C212.359 161.328 212.848 158.203 213.727 154.199C214.703 150.195 215.973 146.582 217.535 143.359C220.465 137.109 224.664 130.859 230.133 124.707C230.426 124.316 231.109 123.633 232.086 122.656C232.965 121.777 234.137 120.703 235.406 119.629C238.629 117.09 241.559 115.82 244.293 115.82C244.977 115.82 245.758 116.016 246.539 116.309C247.418 116.602 248.102 116.992 248.59 117.48C250.348 119.238 251.227 121.289 251.227 123.73C251.227 125.684 250.641 127.93 249.371 130.469C247.809 133.008 245.465 135.254 242.242 137.109C239.02 139.062 235.895 140.039 233.062 140.039C231.598 140.039 230.133 139.746 228.863 139.062C227.105 141.699 225.738 144.238 224.664 146.582C221.734 153.516 220.27 159.18 220.27 163.867C220.27 166.113 220.66 168.066 221.441 169.824C222.223 171.582 223.102 172.754 224.078 173.242C225.055 173.828 225.934 174.121 226.812 174.219H227.496C228.961 174.219 231.109 173.73 233.941 172.656C236.773 171.582 240.68 169.141 245.758 165.332C250.836 161.523 257.184 155.762 264.801 147.949C271.344 141.016 277.301 134.18 282.672 127.637C288.043 121.094 291.949 116.113 294.488 112.695L297.32 105.762C304.547 88.5742 311.676 72.9492 318.609 58.9844C325.543 45.0195 330.426 35.8398 333.453 31.3477C340.777 20.4102 347.125 14.9414 352.301 14.9414L354.059 15.1367C357.281 16.0156 359.332 17.8711 360.309 20.8984C360.699 21.7773 360.895 22.8516 360.895 24.2188C360.895 25.5859 360.602 27.7344 360.016 30.6641C359.43 33.4961 357.086 38.7695 353.082 46.2891C348.98 53.8086 342.34 64.0625 333.258 76.8555C325.738 87.207 318.902 96.3867 312.555 104.297C306.207 112.207 302.008 117.383 300.055 119.629C293.805 135.547 289.508 148.047 287.066 157.129C284.625 166.309 283.453 173.047 283.355 177.246V178.223C283.355 181.934 283.648 184.277 284.332 185.254C284.625 185.938 284.918 186.328 285.309 186.523C285.602 186.816 285.992 186.914 286.383 187.012C286.676 187.109 286.969 187.109 287.359 187.109C289.215 187.109 292.242 186.035 296.441 183.789C300.641 181.543 306.793 176.172 315.094 167.48C320.66 161.328 325.738 155.273 330.328 149.219C334.918 143.262 338.629 138.281 341.363 134.375L341.754 133.887C342.535 132.812 343.609 132.227 344.977 132.227C345.66 132.227 346.441 132.52 347.32 133.105C348.102 133.691 348.59 134.473 348.785 135.547V136.035C348.785 136.719 348.492 137.695 347.711 138.965C341.363 147.852 334.625 156.543 327.594 165.039C320.465 173.535 313.531 180.566 306.598 186.133C299.664 191.699 293.219 194.629 287.262 194.824ZM234.039 132.129C234.918 132.031 235.895 131.641 237.164 130.957C241.363 128.809 243.414 126.465 243.414 124.023V123.828C242.828 123.926 241.852 124.609 240.387 125.684V125.781H240.289C239.215 126.66 238.238 127.539 237.457 128.32C236.676 129.199 236.188 129.688 235.992 129.883L234.039 132.129ZM311.09 93.3594C316.168 86.9141 321.441 79.8828 326.91 72.3633C333.453 63.0859 338.629 55.3711 342.34 49.2188C345.953 43.0664 348.59 38.1836 350.152 34.5703C351.715 30.957 352.594 28.3203 352.887 26.5625C352.984 25.6836 353.082 25 353.082 24.5117C353.082 23.9258 353.082 23.6328 352.984 23.4375C352.887 23.2422 352.887 23.0469 352.789 22.9492C352.691 22.8516 352.594 22.8516 352.301 22.7539C352.203 22.7539 351.91 22.8516 351.422 23.1445C350.836 23.4375 350.055 23.9258 349.078 24.707C348.004 25.5859 346.734 26.8555 345.27 28.6133C343.707 30.3711 341.949 32.7148 339.996 35.6445C337.652 39.1602 333.844 46.1914 328.473 56.7383C323.102 67.3828 317.242 79.5898 311.09 93.3594Z" fill="white"/>
<path d="M336.438 195.02C331.848 195.02 328.527 193.066 326.477 189.258C325.207 186.816 324.523 183.496 324.523 179.297C324.523 167.383 329.895 147.754 340.539 120.508L343.957 112.109C355.773 84.082 366.32 61.3281 375.695 43.75C378.723 37.8906 381.066 33.7891 382.531 31.4453H382.629C390.539 19.5312 396.887 13.5742 401.672 13.5742C402.648 13.5742 403.527 13.7695 404.406 14.2578C406.945 15.5273 408.312 18.3594 408.312 22.7539C408.312 27.0508 406.945 32.9102 404.406 40.332C400.012 52.5391 393.664 65.0391 385.168 77.832C375.109 92.7734 363.586 105.566 350.695 116.113L347.863 123.34C341.906 138.672 337.805 150.684 335.656 159.375C333.41 168.066 332.336 174.414 332.336 178.32C332.336 182.227 332.727 184.668 333.41 185.645C333.898 186.719 334.973 187.207 336.633 187.207C342.492 187.207 351.672 180.762 363.977 167.871C369.445 161.914 374.523 155.859 379.211 149.805C383.801 143.75 387.512 138.77 390.246 134.863L390.93 134.082C391.613 133.203 392.199 132.715 392.883 132.617C393.469 132.52 393.957 132.422 394.152 132.422C394.836 132.422 395.617 132.715 396.301 133.203C397.18 133.887 397.668 134.473 397.766 135.156C397.863 135.742 397.961 136.23 397.961 136.426C397.961 137.305 397.473 138.281 396.594 139.453C393.762 143.457 390.051 148.438 385.266 154.59C380.48 160.742 375.305 166.992 369.641 173.145C356.262 187.695 345.129 195.02 336.438 195.02ZM358.02 98.8281C368.078 88.3789 376.379 77.7344 382.922 66.7969C389.465 55.957 394.152 46.1914 397.082 37.6953C399.426 30.3711 400.598 25.4883 400.598 22.9492L400.5 22.168C399.621 22.6562 398.254 24.0234 396.398 26.0742C394.543 28.125 392.102 31.3477 389.074 35.7422C388.098 37.207 385.949 41.1133 382.629 47.3633C375.695 60.5469 367.492 77.7344 358.02 98.8281Z" fill="white"/>
<path d="M389.422 170.898C388.543 170.898 387.859 170.801 387.176 170.703C383.074 169.824 380.34 167.188 378.875 162.793C378.387 160.938 378.094 158.887 378.094 156.738C378.094 154.004 378.484 150.977 379.363 147.656C380.828 141.895 383.367 136.426 386.98 131.25C392.254 124.023 398.113 120.41 404.461 120.41C404.559 118.945 405.145 117.676 406.023 116.699C406.902 115.723 408.074 115.234 409.246 115.234C412.273 115.234 414.422 118.262 415.887 124.414C416.18 125.879 416.473 127.832 416.668 130.273C420.379 133.301 424.773 134.766 429.852 134.766C432.977 134.766 435.906 133.984 438.641 132.52C439.227 132.129 439.91 131.934 440.594 131.934C442.059 131.934 443.133 132.52 443.914 133.789C444.305 134.473 444.5 135.156 444.5 135.84C444.5 137.305 443.914 138.379 442.645 139.16C438.641 141.406 434.441 142.578 429.852 142.578C424.871 142.578 420.281 141.504 416.082 139.258C415.594 142.48 414.422 145.996 412.762 149.805C411.004 153.613 408.465 157.52 405.145 161.621C401.922 165.332 398.895 167.773 396.258 169.043C393.523 170.312 391.277 170.898 389.422 170.898ZM389.324 163.184C392.156 163.184 395.477 160.938 399.188 156.543C402.801 152.148 405.242 147.949 406.707 143.945C408.074 140.039 408.758 136.621 408.855 133.594C407.391 131.934 406.316 130.078 405.535 128.027L405.438 127.93C405.047 128.027 404.559 128.125 404.07 128.223C400.457 128.418 396.941 130.957 393.328 135.84C390.496 139.844 388.543 143.75 387.469 147.559C386.395 151.27 385.906 154.297 385.906 156.543C385.906 160.938 387.078 163.184 389.324 163.184Z" fill="white"/>
<path d="M444.848 184.082C443.969 184.082 443.09 183.789 442.309 183.203C441.43 182.422 441.039 181.738 441.039 181.152C440.941 180.664 440.941 180.273 440.941 180.176C440.941 179.297 441.234 178.418 441.918 177.637C442.992 176.172 443.773 174.805 444.164 173.34C444.555 171.875 444.75 170.703 444.75 169.629C444.75 168.652 444.75 168.164 444.652 168.066V167.48C444.652 166.602 444.945 165.82 445.434 165.039C446.02 164.258 446.801 163.77 447.875 163.574H448.461C449.34 163.574 450.121 163.867 450.902 164.355C451.684 164.941 452.172 165.723 452.367 166.797C452.465 166.992 452.465 167.871 452.562 169.531C452.562 171.191 452.27 173.242 451.684 175.586C451 178.027 449.73 180.371 447.777 182.812C446.898 183.691 445.922 184.082 444.848 184.082Z" fill="white"/>
</svg>
