<?xml version="1.0" encoding="UTF-8"?>
<svg id="Layer_1" xmlns="http://www.w3.org/2000/svg" version="1.1" viewBox="0 0 380 106">
  <!-- Generator: Adobe Illustrator 29.2.0, SVG Export Plug-In . SVG Version: 2.1.0 Build 108)  -->
  <defs>
    <style>
      .st0 {
        fill: #fff;
      }
    </style>
  </defs>
  <path class="st0" d="M9.67,22.83c-1.82,0-3.31.57-4.48,1.72-1.17,1.14-1.75,2.5-1.75,4.05,0,1.66.58,3.07,1.75,4.21,1.17,1.14,2.66,1.71,4.48,1.71s3.38-.58,4.52-1.75c1.14-1.17,1.72-2.58,1.72-4.25s-.58-3.03-1.76-4.09c-1.17-1.06-2.66-1.6-4.48-1.6Z"/>
  <rect class="st0" x="4.84" y="41.39" width="9.67" height="41.63"/>
  <path class="st0" d="M74.81,35.58c-2.63-2.52-5.73-4.47-9.32-5.85-3.59-1.38-7.49-2.07-11.7-2.07s-8.18.7-11.77,2.1c-3.59,1.4-6.7,3.37-9.35,5.89-2.65,2.52-4.71,5.48-6.16,8.89-1.45,3.4-2.18,7.13-2.18,11.19s.73,7.71,2.18,11.11c1.45,3.41,3.51,6.38,6.16,8.93,2.65,2.55,5.78,4.52,9.39,5.93,3.61,1.4,7.52,2.1,11.73,2.1s8.11-.69,11.7-2.07c3.59-1.38,6.69-3.34,9.32-5.89,2.62-2.55,4.66-5.52,6.12-8.93,1.45-3.4,2.18-7.13,2.18-11.19s-.73-7.8-2.18-11.23c-1.46-3.43-3.5-6.41-6.12-8.93ZM71.45,63.45c-.96,2.34-2.3,4.37-4.01,6.08-1.71,1.71-3.73,3.04-6.04,3.97-2.31.94-4.85,1.4-7.6,1.4s-5.31-.47-7.68-1.4c-2.37-.93-4.41-2.27-6.12-4.01s-3.07-3.78-4.05-6.12c-.99-2.34-1.48-4.88-1.48-7.64s.49-5.37,1.48-7.68c.99-2.31,2.34-4.34,4.05-6.08s3.75-3.08,6.12-4.02c2.36-.94,4.92-1.4,7.68-1.4s5.29.47,7.6,1.4c2.31.94,4.34,2.26,6.08,3.98,1.74,1.72,3.08,3.74,4.01,6.08.94,2.34,1.4,4.91,1.4,7.72s-.48,5.38-1.44,7.72Z"/>
  <path class="st0" d="M127.2,41.93c1.74-1.72,3.79-3.04,6.16-3.98,2.37-.94,4.98-1.4,7.83-1.4s5.43.53,7.88,1.6c2.44,1.07,4.68,2.66,6.7,4.79l6.55-6.16c-2.55-3.01-5.67-5.29-9.36-6.82-3.69-1.53-7.77-2.3-12.24-2.3-4.21,0-8.08.69-11.61,2.07-3.53,1.38-6.63,3.34-9.28,5.89-2.65,2.55-4.71,5.51-6.16,8.89-1.46,3.38-2.19,7.12-2.19,11.23s.73,7.85,2.19,11.23c1.45,3.38,3.49,6.34,6.12,8.89,2.62,2.55,5.7,4.51,9.24,5.89,3.53,1.38,7.41,2.07,11.62,2.07,4.52,0,8.63-.78,12.32-2.34,3.69-1.56,6.81-3.85,9.36-6.86l-6.55-6.16c-2.03,2.18-4.26,3.81-6.7,4.87-2.45,1.07-5.07,1.6-7.88,1.6s-5.47-.47-7.83-1.4c-2.37-.93-4.42-2.26-6.16-3.97-1.74-1.72-3.11-3.74-4.09-6.08-.99-2.34-1.48-4.91-1.48-7.72s.49-5.38,1.48-7.72c.99-2.34,2.35-4.37,4.09-6.08Z"/>
  <path class="st0" d="M198.49,43.53c-3.17-1.79-6.78-2.69-10.84-2.69s-7.86.92-11.11,2.77c-3.25,1.85-5.8,4.37-7.64,7.56-1.84,3.2-2.77,6.87-2.77,11.03s.95,7.83,2.85,11.03c1.9,3.2,4.57,5.72,8.03,7.56,3.46,1.84,7.5,2.77,12.12,2.77,3.64,0,6.87-.57,9.71-1.71,2.83-1.14,5.21-2.81,7.13-4.99l-5.3-6.08c-1.46,1.51-3.12,2.65-4.99,3.43s-3.98,1.17-6.31,1.17c-2.76,0-5.17-.53-7.25-1.6-2.08-1.06-3.68-2.56-4.79-4.48-.71-1.21-1.19-2.54-1.45-3.98h32.67c.05-.42.09-.9.12-1.44.02-.55.04-1,.04-1.36,0-4.42-.91-8.24-2.73-11.46-1.82-3.22-4.31-5.73-7.48-7.52ZM177.13,54.64c.99-1.87,2.4-3.31,4.25-4.33,1.84-1.01,3.94-1.52,6.28-1.52s4.47.51,6.24,1.52c1.77,1.01,3.16,2.44,4.17,4.29.71,1.29,1.15,2.71,1.34,4.25h-23.6c.22-1.53.65-2.94,1.32-4.21Z"/>
  <path class="st0" d="M250.61,42.79c-2.57-1.3-5.55-1.95-8.93-1.95-3.64,0-6.85.73-9.63,2.18-1.86.97-3.4,2.21-4.64,3.72v-5.36h-9.28v41.63h9.67v-21.05c0-2.81.48-5.13,1.44-6.98.96-1.84,2.33-3.24,4.09-4.17,1.77-.93,3.79-1.4,6.08-1.4,3.17,0,5.61.91,7.33,2.73,1.71,1.82,2.57,4.57,2.57,8.26v22.61h9.75v-23.86c0-4.21-.77-7.67-2.3-10.37-1.54-2.7-3.59-4.7-6.16-6Z"/>
  <path class="st0" d="M288.38,75.53c-1.87,0-3.33-.55-4.36-1.64-1.04-1.09-1.56-2.62-1.56-4.6v-19.8h11.23v-7.8h-11.23v-9.51h-9.67v9.51h-6.86v7.8h6.86v20.11c0,4.57,1.25,8.04,3.74,10.41,2.5,2.37,6.03,3.55,10.6,3.55,1.71,0,3.4-.23,5.07-.7,1.66-.47,3.09-1.17,4.29-2.1l-2.81-6.94c-1.4,1.14-3.17,1.72-5.3,1.72Z"/>
  <path class="st0" d="M313.87,47.44v-6.05h-9.28v41.63h9.67v-20.11c0-4.37,1.09-7.61,3.27-9.75,2.18-2.13,5.15-3.2,8.89-3.2.31,0,.65.01,1.01.04.36.03.73.07,1.09.12v-9.28c-3.9,0-7.2.74-9.9,2.22-2,1.1-3.58,2.56-4.76,4.38Z"/>
  <path class="st0" d="M372.89,51.06c-1.82-3.22-4.31-5.73-7.48-7.52-3.17-1.79-6.78-2.69-10.84-2.69s-7.86.92-11.11,2.77c-3.25,1.85-5.8,4.37-7.64,7.56-1.84,3.2-2.77,6.87-2.77,11.03s.95,7.83,2.85,11.03c1.9,3.2,4.57,5.72,8.03,7.56,3.46,1.84,7.5,2.77,12.12,2.77,3.64,0,6.87-.57,9.71-1.71,2.83-1.14,5.21-2.81,7.13-4.99l-5.3-6.08c-1.46,1.51-3.12,2.65-4.99,3.43-1.87.78-3.98,1.17-6.31,1.17-2.76,0-5.17-.53-7.25-1.6-2.08-1.06-3.68-2.56-4.79-4.48-.71-1.21-1.19-2.54-1.45-3.98h32.67c.05-.42.09-.9.12-1.44.02-.55.04-1,.04-1.36,0-4.42-.91-8.24-2.73-11.46ZM344.05,54.64c.99-1.87,2.4-3.31,4.25-4.33,1.84-1.01,3.94-1.52,6.28-1.52s4.47.51,6.24,1.52c1.77,1.01,3.16,2.44,4.17,4.29.71,1.29,1.15,2.71,1.34,4.25h-23.6c.22-1.53.65-2.94,1.32-4.21Z"/>
</svg>